<svg width="24" height="24" viewBox="0 0 24 24" fill="none" xmlns="http://www.w3.org/2000/svg">
<path d="M7.48792 18.4512C7.48792 18.9126 7.62473 19.3636 7.88106 19.7472C8.13739 20.1308 8.50173 20.4298 8.92799 20.6064C9.35426 20.783 9.8233 20.8292 10.2758 20.7392C10.7283 20.6491 11.144 20.427 11.4703 20.1007C11.7965 19.7745 12.0187 19.3588 12.1087 18.9063C12.1987 18.4538 12.1525 17.9847 11.9759 17.5585C11.7994 17.1322 11.5004 16.7679 11.1168 16.5115C10.7331 16.2552 10.2821 16.1184 9.82072 16.1184C9.20221 16.119 8.60923 16.365 8.17188 16.8023C7.73453 17.2397 7.48855 17.8327 7.48792 18.4512ZM10.7135 18.4512C10.7135 18.6278 10.6612 18.8004 10.5631 18.9472C10.465 19.094 10.3255 19.2084 10.1624 19.276C9.99924 19.3436 9.81973 19.3613 9.64654 19.3268C9.47335 19.2924 9.31427 19.2073 9.18941 19.0825C9.06455 18.9576 8.97952 18.7985 8.94507 18.6254C8.91062 18.4522 8.9283 18.2727 8.99588 18.1095C9.06345 17.9464 9.17788 17.8069 9.3247 17.7088C9.47152 17.6107 9.64414 17.5584 9.82072 17.5584C10.0575 17.5584 10.2846 17.6524 10.452 17.8199C10.6195 17.9873 10.7135 18.2144 10.7135 18.4512Z" fill="#00240F"/>
<path d="M16.6274 16.1184C16.166 16.1184 15.7149 16.2552 15.3313 16.5115C14.9477 16.7679 14.6487 17.1322 14.4721 17.5585C14.2956 17.9847 14.2494 18.4538 14.3394 18.9063C14.4294 19.3588 14.6516 19.7745 14.9778 20.1007C15.3041 20.427 15.7197 20.6491 16.1722 20.7392C16.6248 20.8292 17.0938 20.783 17.5201 20.6064C17.9463 20.4298 18.3107 20.1308 18.567 19.7472C18.8233 19.3636 18.9602 18.9126 18.9602 18.4512C18.9595 17.8327 18.7135 17.2397 18.2762 16.8023C17.8388 16.365 17.2459 16.119 16.6274 16.1184ZM16.6274 19.344C16.4508 19.344 16.2782 19.2916 16.1313 19.1935C15.9845 19.0954 15.8701 18.956 15.8025 18.7928C15.7349 18.6297 15.7173 18.4502 15.7517 18.277C15.7862 18.1038 15.8712 17.9447 15.996 17.8199C16.1209 17.695 16.28 17.61 16.4532 17.5755C16.6264 17.5411 16.8059 17.5588 16.969 17.6263C17.1322 17.6939 17.2716 17.8083 17.3697 17.9552C17.4678 18.102 17.5202 18.2746 17.5202 18.4512C17.5195 18.6875 17.4252 18.914 17.2578 19.0809C17.0904 19.2478 16.8637 19.3416 16.6274 19.3416V19.344Z" fill="#00240F"/>
<path d="M20.7936 8.34242C20.8177 8.23702 20.8178 8.12753 20.7939 8.02209C20.7699 7.91665 20.7225 7.81796 20.6552 7.73334C20.5879 7.64872 20.5024 7.58036 20.405 7.53332C20.3076 7.48628 20.2009 7.46177 20.0928 7.46162H7.99679L7.77839 6.37202C7.63007 5.61145 7.25373 4.91405 6.6994 4.37258C6.14507 3.83112 5.43903 3.47124 4.67518 3.34082L4.03438 3.22802C3.93931 3.20753 3.84106 3.20651 3.74558 3.22502C3.6501 3.24354 3.55936 3.28121 3.47884 3.33576C3.39831 3.39031 3.32968 3.46061 3.27707 3.54241C3.22446 3.62422 3.18898 3.71584 3.17275 3.81173C3.15652 3.90763 3.15989 4.00582 3.18266 4.10038C3.20543 4.19494 3.24711 4.28391 3.30521 4.36191C3.3633 4.43992 3.4366 4.50534 3.52067 4.55424C3.60475 4.60314 3.69786 4.6345 3.79438 4.64642L4.43518 4.75922C4.91238 4.84081 5.35345 5.06565 5.69983 5.40388C6.0462 5.7421 6.28147 6.1777 6.37439 6.65282L7.64158 12.9936C7.80448 13.8086 8.24435 14.5421 8.88654 15.0697C9.52873 15.5973 10.3337 15.8864 11.1648 15.888H16.188C17.0027 15.8907 17.794 15.6157 18.4314 15.1083C19.0688 14.6009 19.5143 13.8914 19.6944 13.0968L20.7936 8.34242ZM18.2928 12.7728C18.1841 13.2498 17.9166 13.6758 17.5343 13.981C17.1519 14.2862 16.6772 14.4525 16.188 14.4528H11.1648C10.6658 14.4532 10.182 14.2809 9.79564 13.965C9.40931 13.6491 9.14428 13.2092 9.04558 12.72L8.28479 8.89922H19.1856L18.2928 12.7728Z" fill="#00240F"/>
<circle cx="19.2" cy="7.99999" r="3.2" fill="#EC0000"/>
</svg>
