<svg width="24" height="24" viewBox="0 0 24 24" fill="none" xmlns="http://www.w3.org/2000/svg">
<path d="M14.6431 13.5366C15.5592 12.3419 15.9865 10.8437 15.8382 9.3458C15.6898 7.8479 14.9771 6.46244 13.8444 5.47033C12.7117 4.47822 11.2438 3.95373 9.73846 4.00321C8.2331 4.05268 6.80291 4.67243 5.73788 5.73677C4.67286 6.80111 4.05272 8.23038 4.00321 9.73478C3.9537 11.2392 4.47853 12.7061 5.47128 13.8381C6.46402 14.97 7.85038 15.6823 9.34923 15.8306C10.8481 15.9788 12.3472 15.5518 13.5427 14.6362L18.6844 19.7746C18.829 19.9189 19.025 20 19.2294 20C19.4338 20 19.6298 19.9189 19.7744 19.7746C19.9189 19.6301 20 19.4342 20 19.2299C20 19.0257 19.9189 18.8298 19.7744 18.6853L14.6431 13.5366ZM9.95384 14.3176C9.08945 14.3176 8.24447 14.0615 7.52576 13.5816C6.80705 13.1016 6.24688 12.4195 5.91609 11.6214C5.5853 10.8234 5.49875 9.94517 5.66739 9.09793C5.83602 8.2507 6.25226 7.47246 6.86348 6.86164C7.4747 6.25082 8.25343 5.83484 9.10121 5.66632C9.94899 5.49779 10.8277 5.58428 11.6263 5.91486C12.4249 6.24543 13.1075 6.80524 13.5877 7.52349C14.0679 8.24175 14.3243 9.08618 14.3243 9.95001C14.3216 11.1075 13.8602 12.2169 13.0412 13.0354C12.2222 13.8539 11.1121 14.3149 9.95384 14.3176Z" fill="#00240F"/>
</svg>
